<svg version="1.1" xmlns="http://www.w3.org/2000/svg" xmlns:xlink="http://www.w3.org/1999/xlink" width="88.07636" height="67.01012" viewBox="0,0,88.07636,67.01012"><defs><linearGradient x1="245.73165" y1="152.49641" x2="245.73165" y2="166.81716" gradientUnits="userSpaceOnUse" id="color-1"><stop offset="0" stop-color="#000000"/><stop offset="1" stop-color="#545454"/></linearGradient><linearGradient x1="247.92597" y1="166.58607" x2="247.92597" y2="171.20577" gradientUnits="userSpaceOnUse" id="color-2"><stop offset="0" stop-color="#000000"/><stop offset="1" stop-color="#545454"/></linearGradient><linearGradient x1="273.34394" y1="191.04462" x2="270.11628" y2="195.93585" gradientUnits="userSpaceOnUse" id="color-3"><stop offset="0" stop-color="#ffea77"/><stop offset="1" stop-color="#7c7600"/></linearGradient><linearGradient x1="288.68054" y1="157.71639" x2="270.77929" y2="194.57147" gradientUnits="userSpaceOnUse" id="color-4"><stop offset="0" stop-color="#e8e8e8"/><stop offset="1" stop-color="#ffffff"/></linearGradient><linearGradient x1="232.9587" y1="192.91835" x2="256.37291" y2="192.91835" gradientUnits="userSpaceOnUse" id="color-5"><stop offset="0" stop-color="#ffea77"/><stop offset="1" stop-color="#7c7600"/></linearGradient><linearGradient x1="235.57466" y1="194.79799" x2="256.04847" y2="194.79799" gradientUnits="userSpaceOnUse" id="color-6"><stop offset="0" stop-color="#000000"/><stop offset="1" stop-color="#545454"/></linearGradient><linearGradient x1="246.91617" y1="149.26397" x2="246.91617" y2="158.13859" gradientUnits="userSpaceOnUse" id="color-7"><stop offset="0" stop-color="#000000"/><stop offset="1" stop-color="#545454"/></linearGradient><linearGradient x1="241.40778" y1="146.81579" x2="241.40778" y2="152.93622" gradientUnits="userSpaceOnUse" id="color-8"><stop offset="0" stop-color="#830000"/><stop offset="1" stop-color="#540000"/></linearGradient></defs><g transform="translate(-204.88895,-142.44956)"><g data-paper-data="{&quot;isPaintingLayer&quot;:true}" fill-rule="nonzero" stroke-linejoin="miter" stroke-miterlimit="10" stroke-dasharray="" stroke-dashoffset="0" style="mix-blend-mode: normal"><g><path d="M214.78979,192.12227c0,0 -6.66578,-6.31561 -6.46209,-7.56241c0.19701,-1.20591 7.27891,2.68818 6.41118,0.83087c-1.35966,-2.91025 -6.30596,-6.59503 -6.30137,-8.03204c0.00837,-2.62306 6.38948,2.95159 6.39635,1.74594c0.02236,-3.92552 -7.46216,-11.23147 -7.46216,-11.23147c0,0 10.2334,8.05172 15.13167,10.21068c4.13006,1.82037 12.34838,1.90144 12.34838,1.90144l-10.31473,22.4595z" fill="#174519" stroke="#000000" stroke-width="3" stroke-linecap="butt"/><path d="M235.3279,205.96172c-5.38614,0 -16.26364,-3.01105 -16.26364,-3.01105l0.62282,-16.39328c0,0 4.54375,-21.72475 10.39843,-21.72475c6.60634,0 26.63484,0.46196 26.63484,0.46196c0,0 4.51657,17.37533 4.51657,23.71125c0,6.21373 -4.51657,13.94482 -4.51657,13.94482c0,0 -14.56947,3.01105 -21.39243,3.01105z" data-paper-data="{&quot;index&quot;:null}" fill="#174519" stroke="#000000" stroke-width="4.5" stroke-linecap="butt"/><path d="M252.71165,170.79042v7.25" fill="none" stroke="#000000" stroke-width="3.5" stroke-linecap="round"/><path d="M226.91279,172.7768c0,0 -3.89426,-2.82323 -4.50193,-5.35192c-0.67658,-2.81545 0.62693,-10.77308 0.62693,-10.77308c0,0 3.20831,6.91138 5.3336,7.92082c1.80074,0.85529 5.91366,-0.4018 5.91366,-0.4018z" fill="#f8ff54" stroke="#000000" stroke-width="3.5" stroke-linecap="butt"/><path d="M219.49582,203.21339v-13.5c0,0 20.42003,3.75 26.875,3.75c5.91434,0 13.25,-3.625 13.25,-3.625l-2.875,13.375c0,0 -12.18764,2.5 -18.375,2.5c-6.22903,0 -18.875,-2.5 -18.875,-2.5z" fill="#28311b" stroke="#000000" stroke-width="3.5" stroke-linecap="butt"/><path d="M240.37082,196.46339c0,-0.75939 0.61561,-1.375 1.375,-1.375c0.75939,0 1.375,0.61561 1.375,1.375c0,0.75939 -0.61561,1.375 -1.375,1.375c-0.75939,0 -1.375,-0.61561 -1.375,-1.375z" fill="#5c845e" stroke="#000000" stroke-width="1.5" stroke-linecap="butt"/><path d="M240.24582,201.58839c0,-0.75939 0.61561,-1.375 1.375,-1.375c0.75939,0 1.375,0.61561 1.375,1.375c0,0.75939 -0.61561,1.375 -1.375,1.375c-0.75939,0 -1.375,-0.61561 -1.375,-1.375z" fill="#5c845e" stroke="#000000" stroke-width="1.5" stroke-linecap="butt"/><path d="M222.37082,191.71339l18.75,2.125l-2.125,5.75z" fill="#28311b" stroke="#000000" stroke-width="1.5" stroke-linecap="butt"/><path d="M244.74582,200.83839l-2,-6.875l15.25,-1z" data-paper-data="{&quot;index&quot;:null}" fill="#28311b" stroke="#000000" stroke-width="1.5" stroke-linecap="butt"/><path d="M224.94619,200.99643l0.37528,-4.50334c0,0 2.22427,-0.89163 4.36345,-0.36738c1.61425,0.3956 3.18005,2.24377 3.70503,2.24377c0.38128,0 0.37527,4.12805 0.37527,4.12805z" fill="#28311b" stroke="#000000" stroke-width="2" stroke-linecap="butt"/><path d="M219.82098,206.34032c-0.9478,-0.56133 -2.55623,-2.23887 -2.55623,-2.23887l2.45556,-4.49469c0,0 3.25214,-1.19125 4.28239,-0.58109c1.16252,0.68849 3.71146,2.19809 3.71146,2.19809c0,0 -0.96924,3.60935 -1.6125,4.75386c-0.63085,1.12244 -2.21054,2.04826 -2.21054,2.04826c0,0 -2.8695,-0.97449 -4.07013,-1.68556z" data-paper-data="{&quot;index&quot;:null}" fill="#174519" stroke="#000000" stroke-width="1.5" stroke-linecap="butt"/><path d="M228.06636,177.99631c0,0 -10.22946,-1.37575 -13.35908,-3.56096c-3.48453,-2.43302 -6.59795,-10.37375 -6.59795,-10.37375c0,0 11.79484,5.46061 16.98738,5.71001c4.3996,0.21132 2.96965,8.22471 2.96965,8.22471z" fill="#174519" stroke="#000000" stroke-width="3.5" stroke-linecap="butt"/><path d="M224.2657,180.89414c0,0 8.41559,-18.4705 8.41559,-20.7754c0,-2.45873 2.07882,-7.62233 2.07882,-7.62233c0,0 14.50117,0 18.70936,0c2.1427,0 5.31253,2.77176 5.31253,2.77176l-0.46196,11.54899c0,0 -11.18288,-1.06708 -16.12449,2.77194c-4.59842,3.5724 -2.88971,12.0701 -5.14857,12.0701c-3.52429,0 -12.78128,-0.76506 -12.78128,-0.76506z" fill="url(#color-1)" stroke="#000000" stroke-width="2" stroke-linecap="butt"/><path d="M263.17062,168.20303c0,1.65837 -6.82527,3.00274 -15.24466,3.00274c-8.41939,0 -15.24466,-1.34437 -15.24466,-3.00274c0,-1.65837 8.90409,-1.61686 17.32348,-1.61686c8.41939,0 13.16585,-0.04151 13.16585,1.61686z" fill="url(#color-2)" stroke="#000000" stroke-width="2" stroke-linecap="butt"/><g><g stroke="none" stroke-linecap="butt"><path d="M252.98813,192.49446c-4.03185,0 -12.64129,-1.28959 -12.64129,-1.28959c0,0 -2.66895,-3.3111 -2.66895,-5.97235c0,-0.994 1.49376,-4.52985 4.26516,-5.8864c1.72832,-0.84598 4.37697,0.84938 6.17153,-0.65688c3.18361,-2.67215 4.47418,-3.38091 4.47418,-3.38091l10.18788,5.31425l-0.17793,10.5823c0,0 -6.42777,1.28959 -9.61057,1.28959z" data-paper-data="{&quot;index&quot;:null}" fill="#174519" stroke-width="0"/><path d="M255.96334,182.8612c0,-1.38071 1.11929,-2.5 2.5,-2.5c1.38071,0 2.5,1.11929 2.5,2.5c0,1.38071 -1.11929,2.5 -2.5,2.5c-1.38071,0 -2.5,-1.11929 -2.5,-2.5z" fill="#000000" stroke-width="0.5"/><path d="M249.71334,183.4862c0,-1.38071 1.11929,-2.5 2.5,-2.5c1.38071,0 2.5,1.11929 2.5,2.5c0,1.38071 -1.11929,2.5 -2.5,2.5c-1.38071,0 -2.5,-1.11929 -2.5,-2.5z" fill="#000000" stroke-width="0.5"/></g><path d="M253.70044,175.3634l10.16311,4.38862l-0.46196,10.39409l-6.92939,3.4647" fill="none" stroke="#000000" stroke-width="3.5" stroke-linecap="round"/></g><path d="M242.978,180.28227v-7.25" fill="none" stroke="#000000" stroke-width="3.5" stroke-linecap="round"/><path d="M264.60378,202.46569c-0.9478,-0.56133 -2.55623,-2.23887 -2.55623,-2.23887l2.45556,-4.49469c0,0 3.25214,-1.19125 4.28239,-0.58109c1.16252,0.68849 3.71146,2.19809 3.71146,2.19809c0,0 -0.96924,3.60935 -1.6125,4.75386c-0.63085,1.12244 -2.21054,2.04826 -2.21054,2.04826c0,0 -2.8695,-0.97449 -4.07013,-1.68556z" data-paper-data="{&quot;index&quot;:null}" fill="#174519" stroke="#000000" stroke-width="1.5" stroke-linecap="butt"/><path d="M263.35919,192.24953l3.22766,-4.89123l10.75999,7.06661c0,0 0.32043,4.48254 -1.19141,6.53389c-0.6932,0.94057 -1.95254,5.88326 -4.67848,7.25088c-4.06997,2.04192 -7.45648,-4.30321 -7.45648,-4.30321c0,0 4.32358,2.05071 4.55284,-2.3842c0.12816,-2.47918 1.05205,-3.01641 0.28164,-3.43671c-2.33983,-1.27649 -5.49576,-5.83602 -5.49576,-5.83602z" fill="url(#color-3)" stroke="#000000" stroke-width="2.5" stroke-linecap="butt"/><path d="M267.85384,193.15051l20.69501,-42.12664l3.05714,8.11347l-17.90124,36.85508z" fill="url(#color-4)" stroke="#000000" stroke-width="2.5" stroke-linecap="butt"/><g data-paper-data="{&quot;index&quot;:null}" stroke="#000000" stroke-linecap="butt"><path d="M232.82491,204.62367l0.1338,-12.6999c0,0 11.76462,-2.57724 16.86822,-2.76815c4.30333,-0.16098 11.76402,1.69708 11.76402,1.69708l-5.08423,11.62882c0,0 -10.0389,1.98914 -14.17805,1.98914c-3.58594,0 -9.50375,0.15301 -9.50375,0.15301z" fill="url(#color-5)" stroke-width="2.5"/><path d="M235.45766,205.03335l0.11699,-11.10502c0,0 10.2872,-2.25358 14.74988,-2.42052c3.76291,-0.14076 10.28668,1.48395 10.28668,1.48395l-4.44574,10.16846c0,0 -8.7782,1.73934 -12.39756,1.73934c-3.13561,0 -8.31025,0.13379 -8.31025,0.13379z" fill="url(#color-6)" stroke-width="1"/></g><path d="M244.69751,158.13859v-8.87463h4.43731v8.87463z" fill="url(#color-7)" stroke="#000000" stroke-width="2" stroke-linecap="butt"/><path d="M231.84461,160.73977l-5.20237,-0.91806c0,0 0.25996,-6.91926 3.93082,-11.51373c2.72738,-3.41361 8.70856,-4.85842 10.60521,-4.85842c4.3729,0 13.46495,3.36624 13.46495,3.36624v6.12043c0,0 -9.32157,-3.21323 -13.77097,-3.21323c-1.54953,0 -6.04166,0.92427 -7.44232,2.71053c-2.55212,3.2547 -1.58531,8.30625 -1.58531,8.30625z" fill="url(#color-8)" stroke="#000000" stroke-width="2" stroke-linecap="butt"/></g></g></g></svg>